<mxfile host="app.diagrams.net" modified="2024-05-30T06:05:14.436Z" agent="Mozilla/5.0 (Windows NT 10.0; Win64; x64) AppleWebKit/537.36 (KHTML, like Gecko) Chrome/125.0.0.0 Safari/537.36" etag="l2a3eKWMqzeD6FnNNAT6" version="24.2.1" type="device">
  <diagram name="第 1 页" id="qn-OyjD87NHTHmbRyYxM">
    <mxGraphModel dx="1436" dy="727" grid="1" gridSize="10" guides="1" tooltips="1" connect="1" arrows="1" fold="1" page="1" pageScale="1" pageWidth="827" pageHeight="1169" math="0" shadow="0">
      <root>
        <mxCell id="0" />
        <mxCell id="1" parent="0" />
        <mxCell id="bxIqSpnA48poh6s7THLQ-1" value="this is bold, &lt;i&gt;&lt;b&gt;code and italic&lt;/b&gt;&lt;/i&gt;,&amp;nbsp;&lt;div&gt;strike combined bold and italic an url: https://www.example.com/abc#fragment&lt;/div&gt;" style="text;strokeColor=none;align=left;fillColor=none;html=1;verticalAlign=middle;whiteSpace=wrap;rounded=0;fontSize=30;labelBorderColor=default;" vertex="1" parent="1">
          <mxGeometry x="20" y="20" width="650" height="120" as="geometry" />
        </mxCell>
        <mxCell id="bxIqSpnA48poh6s7THLQ-2" value="第56字符开始，6个字符长度为斜体：italic" style="rounded=0;whiteSpace=wrap;html=1;fontSize=18;" vertex="1" parent="1">
          <mxGeometry x="60" y="210" width="360" height="50" as="geometry" />
        </mxCell>
        <mxCell id="bxIqSpnA48poh6s7THLQ-3" value="第47字符开始，15个字符长度为粗体： bold and _italic" style="rounded=0;whiteSpace=wrap;html=1;fontSize=18;" vertex="1" parent="1">
          <mxGeometry x="60" y="280" width="460" height="50" as="geometry" />
        </mxCell>
        <mxCell id="bxIqSpnA48poh6s7THLQ-4" value="第62字符开始，换行" style="rounded=0;whiteSpace=wrap;html=1;fontSize=18;align=left;" vertex="1" parent="1">
          <mxGeometry x="60" y="350" width="360" height="50" as="geometry" />
        </mxCell>
        <mxCell id="bxIqSpnA48poh6s7THLQ-5" value="第71字符开始，长度36，引用链接索引0" style="rounded=0;whiteSpace=wrap;html=1;fontSize=18;align=left;" vertex="1" parent="1">
          <mxGeometry x="60" y="430" width="360" height="50" as="geometry" />
        </mxCell>
        <mxCell id="bxIqSpnA48poh6s7THLQ-8" value="链接：&quot;https://www.example.com/abc#fragment&quot;" style="rounded=1;whiteSpace=wrap;html=1;" vertex="1" parent="1">
          <mxGeometry x="430" y="530" width="360" height="60" as="geometry" />
        </mxCell>
        <mxCell id="bxIqSpnA48poh6s7THLQ-9" value="" style="endArrow=classic;html=1;rounded=0;exitX=0.953;exitY=0.97;exitDx=0;exitDy=0;exitPerimeter=0;" edge="1" parent="1" source="bxIqSpnA48poh6s7THLQ-5">
          <mxGeometry width="50" height="50" relative="1" as="geometry">
            <mxPoint x="380" y="610" as="sourcePoint" />
            <mxPoint x="430" y="560" as="targetPoint" />
          </mxGeometry>
        </mxCell>
        <mxCell id="bxIqSpnA48poh6s7THLQ-14" value="格式列表：" style="text;strokeColor=none;align=center;fillColor=none;html=1;verticalAlign=middle;whiteSpace=wrap;rounded=0;fontSize=19;" vertex="1" parent="1">
          <mxGeometry x="30" y="160" width="120" height="30" as="geometry" />
        </mxCell>
        <mxCell id="bxIqSpnA48poh6s7THLQ-15" value="附件列表：" style="text;strokeColor=none;align=center;fillColor=none;html=1;verticalAlign=middle;whiteSpace=wrap;rounded=0;fontSize=19;" vertex="1" parent="1">
          <mxGeometry x="450" y="480" width="120" height="30" as="geometry" />
        </mxCell>
      </root>
    </mxGraphModel>
  </diagram>
</mxfile>
